<?xml version="1.0" standalone="no"?>
<!DOCTYPE svg PUBLIC "-//W3C//DTD SVG 1.1//EN" "http://www.w3.org/Graphics/SVG/1.1/DTD/svg11.dtd">
<svg version="1.1" xmlns="http://www.w3.org/2000/svg" viewBox="0 0 1593.8461538461536 675.3846153846152" width="4781.538461538461" height="2026.1538461538457" filter="invert(93%) hue-rotate(180deg)"><!-- svg-source:excalidraw --><metadata></metadata><defs><style class="style-fonts">
      </style></defs><rect x="0" y="0" width="1593.8461538461536" height="675.3846153846152" fill="#ffffff"></rect><g stroke-linecap="round" transform="translate(10 10) rotate(0 786.9230769230768 327.6923076923076)"><path d="M32 0 C447.21 0, 862.41 0, 1541.85 0 C1563.18 0, 1573.85 10.67, 1573.85 32 C1573.85 161.08, 1573.85 290.17, 1573.85 623.38 C1573.85 644.72, 1563.18 655.38, 1541.85 655.38 C1092.27 655.38, 642.7 655.38, 32 655.38 C10.67 655.38, 0 644.72, 0 623.38 C0 468.34, 0 313.29, 0 32 C0 10.67, 10.67 0, 32 0" stroke="none" stroke-width="0" fill="#ffffff"></path><path d="M32 0 C480.76 0, 929.51 0, 1541.85 0 M32 0 C379.12 0, 726.24 0, 1541.85 0 M1541.85 0 C1563.18 0, 1573.85 10.67, 1573.85 32 M1541.85 0 C1563.18 0, 1573.85 10.67, 1573.85 32 M1573.85 32 C1573.85 222.88, 1573.85 413.76, 1573.85 623.38 M1573.85 32 C1573.85 218.95, 1573.85 405.91, 1573.85 623.38 M1573.85 623.38 C1573.85 644.72, 1563.18 655.38, 1541.85 655.38 M1573.85 623.38 C1573.85 644.72, 1563.18 655.38, 1541.85 655.38 M1541.85 655.38 C1100.89 655.38, 659.93 655.38, 32 655.38 M1541.85 655.38 C1094.19 655.38, 646.53 655.38, 32 655.38 M32 655.38 C10.67 655.38, 0 644.72, 0 623.38 M32 655.38 C10.67 655.38, 0 644.72, 0 623.38 M0 623.38 C0 443.39, 0 263.39, 0 32 M0 623.38 C0 457.73, 0 292.07, 0 32 M0 32 C0 10.67, 10.67 0, 32 0 M0 32 C0 10.67, 10.67 0, 32 0" stroke="transparent" stroke-width="2" fill="none"></path></g><g stroke-opacity="0.7" fill-opacity="0.7" stroke-linecap="round" transform="translate(467.0688468867895 94.1626576413617) rotate(0 77.74190490393471 83.23774863995081)"><path d="M32 0 C65.82 0, 99.64 0, 123.48 0 M32 0 C61.18 0, 90.35 0, 123.48 0 M123.48 0 C144.82 0, 155.48 10.67, 155.48 32 M123.48 0 C144.82 0, 155.48 10.67, 155.48 32 M155.48 32 C155.48 62.46, 155.48 92.92, 155.48 134.48 M155.48 32 C155.48 55.56, 155.48 79.12, 155.48 134.48 M155.48 134.48 C155.48 155.81, 144.82 166.48, 123.48 166.48 M155.48 134.48 C155.48 155.81, 144.82 166.48, 123.48 166.48 M123.48 166.48 C93.96 166.48, 64.43 166.48, 32 166.48 M123.48 166.48 C94.56 166.48, 65.64 166.48, 32 166.48 M32 166.48 C10.67 166.48, 0 155.81, 0 134.48 M32 166.48 C10.67 166.48, 0 155.81, 0 134.48 M0 134.48 C0 104.55, 0 74.62, 0 32 M0 134.48 C0 104.09, 0 73.71, 0 32 M0 32 C0 10.67, 10.67 0, 32 0 M0 32 C0 10.67, 10.67 0, 32 0" stroke="#1e1e1e" stroke-width="2" fill="none"></path></g><g stroke-opacity="0.7" fill-opacity="0.7" stroke-linecap="round" transform="translate(643.756388690126 92.59570312499989) rotate(0 77.74190490393471 83.23774863995084)"><path d="M32 0 C59.13 0, 86.26 0, 123.48 0 M32 0 C52.8 0, 73.6 0, 123.48 0 M123.48 0 C144.82 0, 155.48 10.67, 155.48 32 M123.48 0 C144.82 0, 155.48 10.67, 155.48 32 M155.48 32 C155.48 63.57, 155.48 95.13, 155.48 134.48 M155.48 32 C155.48 67.54, 155.48 103.08, 155.48 134.48 M155.48 134.48 C155.48 155.81, 144.82 166.48, 123.48 166.48 M155.48 134.48 C155.48 155.81, 144.82 166.48, 123.48 166.48 M123.48 166.48 C102.6 166.48, 81.72 166.48, 32 166.48 M123.48 166.48 C91.5 166.48, 59.51 166.48, 32 166.48 M32 166.48 C10.67 166.48, 0 155.81, 0 134.48 M32 166.48 C10.67 166.48, 0 155.81, 0 134.48 M0 134.48 C0 112.6, 0 90.72, 0 32 M0 134.48 C0 95.99, 0 57.5, 0 32 M0 32 C0 10.67, 10.67 0, 32 0 M0 32 C0 10.67, 10.67 0, 32 0" stroke="#1e1e1e" stroke-width="2" fill="none"></path></g><g stroke-opacity="0.7" fill-opacity="0.7" stroke-linecap="round" transform="translate(554.2278161272282 285.7682199299959) rotate(0 77.74190490393471 83.23774863995084)"><path d="M32 0 C50.43 0, 68.86 0, 123.48 0 M32 0 C64.28 0, 96.57 0, 123.48 0 M123.48 0 C144.82 0, 155.48 10.67, 155.48 32 M123.48 0 C144.82 0, 155.48 10.67, 155.48 32 M155.48 32 C155.48 67.8, 155.48 103.61, 155.48 134.48 M155.48 32 C155.48 58.65, 155.48 85.3, 155.48 134.48 M155.48 134.48 C155.48 155.81, 144.82 166.48, 123.48 166.48 M155.48 134.48 C155.48 155.81, 144.82 166.48, 123.48 166.48 M123.48 166.48 C87.04 166.48, 50.59 166.48, 32 166.48 M123.48 166.48 C89.54 166.48, 55.6 166.48, 32 166.48 M32 166.48 C10.67 166.48, 0 155.81, 0 134.48 M32 166.48 C10.67 166.48, 0 155.81, 0 134.48 M0 134.48 C0 106, 0 77.53, 0 32 M0 134.48 C0 95.17, 0 55.86, 0 32 M0 32 C0 10.67, 10.67 0, 32 0 M0 32 C0 10.67, 10.67 0, 32 0" stroke="#1e1e1e" stroke-width="2" fill="none"></path></g><g stroke-linecap="round" transform="translate(597.4251478923152 227.6579800923887) rotate(0 37.693819409904336 35.33699711938948)"><path d="M75.39 35.34 C75.39 37.18, 75.23 39.04, 74.92 40.86 C74.62 42.68, 74.15 44.5, 73.54 46.26 C72.94 48.01, 72.17 49.74, 71.28 51.38 C70.39 53.02, 69.34 54.62, 68.19 56.11 C67.03 57.6, 65.74 59.02, 64.35 60.32 C62.96 61.63, 61.44 62.84, 59.85 63.93 C58.26 65.01, 56.56 65.99, 54.81 66.82 C53.06 67.66, 51.21 68.38, 49.34 68.94 C47.47 69.51, 45.53 69.95, 43.59 70.24 C41.65 70.53, 39.66 70.67, 37.69 70.67 C35.73 70.67, 33.74 70.53, 31.8 70.24 C29.86 69.95, 27.92 69.51, 26.05 68.94 C24.18 68.38, 22.33 67.66, 20.58 66.82 C18.83 65.99, 17.13 65.01, 15.54 63.93 C13.95 62.84, 12.43 61.63, 11.04 60.32 C9.65 59.02, 8.35 57.6, 7.2 56.11 C6.04 54.62, 5 53.02, 4.11 51.38 C3.22 49.74, 2.45 48.01, 1.84 46.26 C1.24 44.5, 0.77 42.68, 0.46 40.86 C0.16 39.04, 0 37.18, 0 35.34 C0 33.49, 0.16 31.63, 0.46 29.81 C0.77 27.99, 1.24 26.17, 1.84 24.42 C2.45 22.66, 3.22 20.94, 4.11 19.29 C5 17.65, 6.04 16.06, 7.2 14.57 C8.35 13.08, 9.65 11.65, 11.04 10.35 C12.43 9.05, 13.95 7.83, 15.54 6.75 C17.13 5.67, 18.83 4.69, 20.58 3.85 C22.33 3.01, 24.18 2.3, 26.05 1.73 C27.92 1.16, 29.86 0.72, 31.8 0.44 C33.74 0.15, 35.73 0, 37.69 0 C39.66 0, 41.65 0.15, 43.59 0.44 C45.53 0.72, 47.47 1.16, 49.34 1.73 C51.21 2.3, 53.06 3.01, 54.81 3.85 C56.56 4.69, 58.26 5.67, 59.85 6.75 C61.44 7.83, 62.96 9.05, 64.35 10.35 C65.74 11.65, 67.03 13.08, 68.19 14.57 C69.34 16.06, 70.39 17.65, 71.28 19.29 C72.17 20.94, 72.94 22.66, 73.54 24.42 C74.15 26.17, 74.62 27.99, 74.92 29.81 C75.23 31.63, 75.31 34.42, 75.39 35.34 C75.46 36.26, 75.46 34.42, 75.39 35.34" stroke="#e03131" stroke-width="4" fill="none"></path></g><g stroke-linecap="round" transform="translate(946.0763620924029 94.1626576413617) rotate(0 126.42996799226012 203.9262804516051)"><path d="M32 0 C98.83 0, 165.66 0, 220.86 0 M32 0 C83.42 0, 134.85 0, 220.86 0 M220.86 0 C242.19 0, 252.86 10.67, 252.86 32 M220.86 0 C242.19 0, 252.86 10.67, 252.86 32 M252.86 32 C252.86 126.33, 252.86 220.66, 252.86 375.85 M252.86 32 C252.86 126.84, 252.86 221.67, 252.86 375.85 M252.86 375.85 C252.86 397.19, 242.19 407.85, 220.86 407.85 M252.86 375.85 C252.86 397.19, 242.19 407.85, 220.86 407.85 M220.86 407.85 C149.93 407.85, 79 407.85, 32 407.85 M220.86 407.85 C181.18 407.85, 141.5 407.85, 32 407.85 M32 407.85 C10.67 407.85, 0 397.19, 0 375.85 M32 407.85 C10.67 407.85, 0 397.19, 0 375.85 M0 375.85 C0 265.65, 0 155.44, 0 32 M0 375.85 C0 272.06, 0 168.27, 0 32 M0 32 C0 10.67, 10.67 0, 32 0 M0 32 C0 10.67, 10.67 0, 32 0" stroke="#1e1e1e" stroke-width="2" fill="none"></path></g><g stroke-linecap="round"><g transform="translate(1068.319264019735 94.1626576413617) rotate(0 0 52.61439610159101)"><path d="M0 0 C0 17.54, 0 87.69, 0 105.23 M0 0 C0 17.54, 0 87.69, 0 105.23" stroke="#1e1e1e" stroke-width="2" fill="none"></path></g></g><mask></mask><g stroke-linecap="round" transform="translate(1058.8970872704538 174.2588286294224) rotate(0 10.994243678421071 40.83539706179448)"><path d="M5.5 0 C8.98 0, 12.46 0, 16.49 0 M5.5 0 C8.54 0, 11.58 0, 16.49 0 M16.49 0 C20.16 0, 21.99 1.83, 21.99 5.5 M16.49 0 C20.16 0, 21.99 1.83, 21.99 5.5 M21.99 5.5 C21.99 24.66, 21.99 43.83, 21.99 76.17 M21.99 5.5 C21.99 20.84, 21.99 36.18, 21.99 76.17 M21.99 76.17 C21.99 79.84, 20.16 81.67, 16.49 81.67 M21.99 76.17 C21.99 79.84, 20.16 81.67, 16.49 81.67 M16.49 81.67 C13.6 81.67, 10.71 81.67, 5.5 81.67 M16.49 81.67 C14.14 81.67, 11.79 81.67, 5.5 81.67 M5.5 81.67 C1.83 81.67, 0 79.84, 0 76.17 M5.5 81.67 C1.83 81.67, 0 79.84, 0 76.17 M0 76.17 C0 52.29, 0 28.41, 0 5.5 M0 76.17 C0 49.85, 0 23.52, 0 5.5 M0 5.5 C0 1.83, 1.83 0, 5.5 0 M0 5.5 C0 1.83, 1.83 0, 5.5 0" stroke="#e03131" stroke-width="4" fill="none"></path></g><g stroke-opacity="0.7" fill-opacity="0.7" stroke-linecap="round" transform="translate(385.13731971153834 519.7761337967863) rotate(0 88.7361485823559 38.47857477127968)"><path d="M19.24 0 C74.29 0, 129.33 0, 158.23 0 M19.24 0 C58.9 0, 98.55 0, 158.23 0 M158.23 0 C171.06 0, 177.47 6.41, 177.47 19.24 M158.23 0 C171.06 0, 177.47 6.41, 177.47 19.24 M177.47 19.24 C177.47 27.84, 177.47 36.43, 177.47 57.72 M177.47 19.24 C177.47 32.91, 177.47 46.58, 177.47 57.72 M177.47 57.72 C177.47 70.54, 171.06 76.96, 158.23 76.96 M177.47 57.72 C177.47 70.54, 171.06 76.96, 158.23 76.96 M158.23 76.96 C130.31 76.96, 102.39 76.96, 19.24 76.96 M158.23 76.96 C123.5 76.96, 88.77 76.96, 19.24 76.96 M19.24 76.96 C6.41 76.96, 0 70.54, 0 57.72 M19.24 76.96 C6.41 76.96, 0 70.54, 0 57.72 M0 57.72 C0 47.7, 0 37.67, 0 19.24 M0 57.72 C0 45.39, 0 33.07, 0 19.24 M0 19.24 C0 6.41, 6.41 0, 19.24 0 M0 19.24 C0 6.41, 6.41 0, 19.24 0" stroke="#1e1e1e" stroke-width="2" fill="none"></path></g><g stroke-linecap="round" transform="translate(575.960682845186 518.9913784354111) rotate(0 62.03657285087263 38.47857477127968)"><path d="M19.24 0 C47.97 0, 76.7 0, 104.83 0 M19.24 0 C45.64 0, 72.03 0, 104.83 0 M104.83 0 C117.66 0, 124.07 6.41, 124.07 19.24 M104.83 0 C117.66 0, 124.07 6.41, 124.07 19.24 M124.07 19.24 C124.07 30.6, 124.07 41.97, 124.07 57.72 M124.07 19.24 C124.07 33.38, 124.07 47.52, 124.07 57.72 M124.07 57.72 C124.07 70.54, 117.66 76.96, 104.83 76.96 M124.07 57.72 C124.07 70.54, 117.66 76.96, 104.83 76.96 M104.83 76.96 C85.59 76.96, 66.35 76.96, 19.24 76.96 M104.83 76.96 C78.58 76.96, 52.32 76.96, 19.24 76.96 M19.24 76.96 C6.41 76.96, 0 70.54, 0 57.72 M19.24 76.96 C6.41 76.96, 0 70.54, 0 57.72 M0 57.72 C0 49.86, 0 42.01, 0 19.24 M0 57.72 C0 47.69, 0 37.67, 0 19.24 M0 19.24 C0 6.41, 6.41 0, 19.24 0 M0 19.24 C0 6.41, 6.41 0, 19.24 0" stroke="#1e1e1e" stroke-width="4" fill="none"></path></g><g stroke-opacity="0.7" fill-opacity="0.7" stroke-linecap="round" transform="translate(709.4483366770464 518.9913784354111) rotate(0 88.7361485823559 38.47857477127968)"><path d="M19.24 0 C57.46 0, 95.68 0, 158.23 0 M19.24 0 C73.33 0, 127.41 0, 158.23 0 M158.23 0 C171.06 0, 177.47 6.41, 177.47 19.24 M158.23 0 C171.06 0, 177.47 6.41, 177.47 19.24 M177.47 19.24 C177.47 30.65, 177.47 42.05, 177.47 57.72 M177.47 19.24 C177.47 27.27, 177.47 35.29, 177.47 57.72 M177.47 57.72 C177.47 70.54, 171.06 76.96, 158.23 76.96 M177.47 57.72 C177.47 70.54, 171.06 76.96, 158.23 76.96 M158.23 76.96 C130.22 76.96, 102.21 76.96, 19.24 76.96 M158.23 76.96 C121.66 76.96, 85.08 76.96, 19.24 76.96 M19.24 76.96 C6.41 76.96, 0 70.54, 0 57.72 M19.24 76.96 C6.41 76.96, 0 70.54, 0 57.72 M0 57.72 C0 46.91, 0 36.1, 0 19.24 M0 57.72 C0 49.71, 0 41.71, 0 19.24 M0 19.24 C0 6.41, 6.41 0, 19.24 0 M0 19.24 C0 6.41, 6.41 0, 19.24 0" stroke="#1e1e1e" stroke-width="2" fill="none"></path></g><g stroke-linecap="round"><g transform="translate(641.6427999042 556.4935769175196) rotate(0 210.5565778893208 -161.03568325934032)"><path d="M0 0 C70.19 -53.68, 350.93 -268.39, 421.11 -322.07 M0 0 C70.19 -53.68, 350.93 -268.39, 421.11 -322.07" stroke="#1971c2" stroke-width="2" fill="none"></path></g><g transform="translate(641.6427999042 556.4935769175196) rotate(0 210.5565778893208 -161.03568325934032)"><path d="M407.65 -301.01 C410.52 -305.5, 413.39 -309.99, 421.11 -322.07 M407.65 -301.01 C411.08 -306.38, 414.51 -311.75, 421.11 -322.07" stroke="#1971c2" stroke-width="2" fill="none"></path></g><g transform="translate(641.6427999042 556.4935769175196) rotate(0 210.5565778893208 -161.03568325934032)"><path d="M397.26 -314.59 C402.35 -316.19, 407.44 -317.78, 421.11 -322.07 M397.26 -314.59 C403.34 -316.5, 409.42 -318.41, 421.11 -322.07" stroke="#1971c2" stroke-width="2" fill="none"></path></g></g><mask></mask></svg>